<svg width="459" height="458" viewBox="0 0 459 458" fill="none" xmlns="http://www.w3.org/2000/svg">
<path d="M295 446.5L295.326 445.555L295 446.5ZM394 217L393.668 217.943L394 217ZM242.5 40.5001L243.35 41.0265L242.5 40.5001ZM404.707 41.2073C405.098 40.8168 405.098 40.1836 404.707 39.7931L398.343 33.4291C397.953 33.0386 397.319 33.0386 396.929 33.4291C396.538 33.8197 396.538 34.4528 396.929 34.8433L402.586 40.5002L396.929 46.1571C396.538 46.5476 396.538 47.1807 396.929 47.5713C397.319 47.9618 397.953 47.9618 398.343 47.5713L404.707 41.2073ZM0.529759 327.5C3.78512 327.403 6.9933 327.32 10.1551 327.251L10.1113 325.251C6.94418 325.32 3.73075 325.403 0.470241 325.5L0.529759 327.5ZM28.775 326.997C35.2394 326.965 41.4923 326.995 47.5418 327.085L47.5714 325.085C41.5082 324.995 35.242 324.965 28.7651 324.997L28.775 326.997ZM66.3831 327.577C72.8922 327.826 79.1397 328.15 85.1382 328.546L85.27 326.55C79.252 326.153 72.986 325.828 66.4594 325.579L66.3831 327.577ZM103.818 330.084C110.335 330.735 116.518 331.481 122.387 332.315L122.668 330.335C116.77 329.497 110.559 328.748 104.016 328.094L103.818 330.084ZM140.748 335.397C147.313 336.684 153.415 338.098 159.097 339.625L159.616 337.693C153.887 336.154 147.739 334.729 141.133 333.434L140.748 335.397ZM176.836 345.223C183.167 347.558 188.845 350.061 193.969 352.699L194.884 350.921C189.684 348.243 183.93 345.707 177.528 343.347L176.836 345.223ZM209.789 362.426C215.161 366.365 219.732 370.486 223.746 374.708L225.196 373.33C221.106 369.028 216.445 364.827 210.972 360.813L209.789 362.426ZM235.463 389.155C239.16 394.399 242.434 399.657 245.729 404.827L247.415 403.752C244.136 398.606 240.829 393.296 237.098 388.003L235.463 389.155ZM256.444 420.365C260.251 425.213 264.514 429.794 269.671 433.95L270.926 432.393C265.912 428.352 261.753 423.887 258.017 419.129L256.444 420.365ZM285.823 443.9C288.574 445.171 291.516 446.356 294.674 447.445L295.326 445.555C292.229 444.486 289.35 443.327 286.662 442.085L285.823 443.9ZM294.674 447.445C297.532 448.431 300.349 449.344 303.127 450.185L303.706 448.27C300.954 447.437 298.16 446.533 295.326 445.555L294.674 447.445ZM319.952 454.518C325.877 455.767 331.601 456.666 337.124 457.236L337.33 455.247C331.879 454.684 326.225 453.796 320.364 452.561L319.952 454.518ZM354.485 457.961C360.529 457.82 366.294 457.248 371.784 456.282L371.438 454.313C366.05 455.26 360.385 455.822 354.438 455.962L354.485 457.961ZM388.71 451.785C394.317 449.748 399.567 447.245 404.466 444.333L403.444 442.614C398.653 445.462 393.516 447.911 388.027 449.906L388.71 451.785ZM418.579 434.014C422.948 430.141 426.938 425.884 430.557 421.307L428.988 420.067C425.439 424.555 421.529 428.726 417.252 432.517L418.579 434.014ZM440.241 406.801C443.067 401.766 445.546 396.487 447.686 391.022L445.824 390.292C443.716 395.676 441.275 400.872 438.497 405.822L440.241 406.801ZM453.018 374.442C454.455 368.846 455.581 363.13 456.403 357.348L454.423 357.066C453.611 362.779 452.499 368.423 451.081 373.944L453.018 374.442ZM457.959 340.01C458.184 334.206 458.117 328.387 457.767 322.605L455.771 322.727C456.117 328.442 456.182 334.195 455.96 339.933L457.959 340.01ZM455.847 305.292C454.91 299.512 453.682 293.825 452.17 288.285L450.241 288.812C451.733 294.281 452.947 299.9 453.873 305.612L455.847 305.292ZM446.621 271.748C444.412 266.269 441.891 261.018 439.067 256.062L437.329 257.052C440.106 261.925 442.588 267.095 444.767 272.496L446.621 271.748ZM429.253 241.597C425.523 236.981 421.446 232.788 417.031 229.105L415.75 230.641C420.057 234.233 424.043 238.331 427.697 242.854L429.253 241.597ZM402.419 219.489C399.808 218.184 397.112 217.036 394.332 216.057L393.668 217.943C396.368 218.894 398.987 220.01 401.525 221.278L402.419 219.489ZM394.332 216.057C391.479 215.052 388.521 213.976 385.476 212.831L384.772 214.702C387.83 215.853 390.801 216.934 393.668 217.943L394.332 216.057ZM367.883 205.815C362.245 203.44 356.442 200.874 350.558 198.126L349.712 199.938C355.62 202.698 361.446 205.274 367.106 207.658L367.883 205.815ZM333.566 189.77C328.01 186.893 322.452 183.866 316.959 180.696L315.959 182.428C321.481 185.614 327.066 188.656 332.647 191.546L333.566 189.77ZM300.823 170.816C295.494 167.348 290.299 163.743 285.305 160.009L284.107 161.611C289.139 165.373 294.37 169.003 299.732 172.492L300.823 170.816ZM270.632 148.106C265.808 143.836 261.295 139.428 257.176 134.892L255.696 136.237C259.869 140.833 264.435 145.291 269.307 149.604L270.632 148.106ZM245.554 120.128C241.97 114.754 238.992 109.237 236.729 103.589L234.873 104.333C237.193 110.126 240.24 115.765 243.891 121.238L245.554 120.128ZM232.119 85.5349C231.452 79.476 231.659 73.2839 232.865 66.9688L230.901 66.5936C229.657 73.1072 229.443 79.4996 230.131 85.7536L232.119 85.5349ZM238.82 49.2572C240.132 46.5345 241.639 43.7906 243.35 41.0265L241.65 39.9738C239.903 42.7948 238.362 45.6 237.018 48.3887L238.82 49.2572ZM243.35 41.0265C245.04 38.2968 246.731 35.7394 248.422 33.346L246.789 32.1919C245.072 34.6205 243.359 37.2119 241.65 39.9738L243.35 41.0265ZM260.21 19.2192C265.034 14.4399 269.851 10.8411 274.654 8.22559L273.698 6.46913C268.709 9.18557 263.743 12.9034 258.803 17.7985L260.21 19.2192ZM291.819 2.7195C297.83 2.02722 303.855 2.51746 309.891 3.84432L310.32 1.89096C304.113 0.526384 297.862 0.0103159 291.59 0.732629L291.819 2.7195ZM327.253 9.65101C332.788 12.0378 338.31 14.8372 343.818 17.7743L344.759 16.0095C339.231 13.0617 333.654 10.2331 328.045 7.8145L327.253 9.65101ZM360.104 26.6145C365.699 29.6126 371.273 32.4622 376.805 34.8488L377.597 33.0124C372.142 30.6591 366.626 27.8405 361.049 24.8516L360.104 26.6145ZM394.608 40.5798C397.75 41.1725 400.882 41.5002 404 41.5002V39.5002C401.023 39.5002 398.015 39.1872 394.978 38.6145L394.608 40.5798Z" fill="white"/>
</svg>
